<svg xmlns="http://www.w3.org/2000/svg" viewBox="0 0 66.53 86.76"><defs><style>.cls-1{font-size:20.03px;font-family:Pacifico-Regular, Pacifico;}.cls-1,.cls-5{fill:#fff;}.cls-2{letter-spacing:-0.01em;}.cls-3{letter-spacing:0em;}.cls-4{letter-spacing:-0.02em;}.cls-5,.cls-6{stroke:#fff;}.cls-5{stroke-miterlimit:10;}.cls-6{fill:none;stroke-linecap:round;stroke-linejoin:round;stroke-width:2px;}</style></defs><g id="Capa_2" data-name="Capa 2"><g id="Capa_1-2" data-name="Capa 1"><text class="cls-1" transform="translate(0 77.6)"><tspan class="cls-2">Q</tspan><tspan class="cls-3" x="16.15" y="0">u</tspan><tspan class="cls-4" x="25.4" y="0">i</tspan><tspan x="29.93" y="0">zter</tspan></text><path class="cls-5" d="M61.05,2.5l-5.18,40-17.64-8L36.82,47.44,31.64,32.38,18.93,27,61.05,2.5m0-2a2,2,0,0,0-1,.27L17.93,25.24a2,2,0,0,0,.22,3.57L30,33.87l4.88,14.22a2,2,0,0,0,1.89,1.35H37a2,2,0,0,0,1.76-1.77l1.12-10.2,15.13,6.86a2,2,0,0,0,.82.18,2,2,0,0,0,1-.25,2,2,0,0,0,1-1.49L63,2.76A2,2,0,0,0,62.16.83,2,2,0,0,0,61.05.5Zm0,4h0Z"/><polyline class="cls-6" points="31.64 32.38 61.05 2.5 38.23 34.5 37.84 47.85 44.02 38.5"/><path class="cls-6" d="M4.29,49.84s4,3.76,4.82,3.64"/><path class="cls-6" d="M13.87,54.93a28.68,28.68,0,0,0,5.06,0"/><path class="cls-6" d="M24.76,53.49a18.43,18.43,0,0,0,3.06-1.83"/></g></g></svg>